# xmcd
#
# Track frame offsets:
#	150
#	17712
#	38790
#	58200
#	80655
#	98127
#	116705
#	139612
#	158932
#	177465
#	195297
#	211720
#	229945
#	252402
#
# Disc length: 3724 seconds
#
# Revision: 6
# Processed by: cddbd v1.5.2PL0 Copyright (c) Steve Scherf et al.
# Submitted via: EZCDAudioConverter 1.3.4.1
#
DISCID=be0e8a0e
DTITLE=Various Artist - Songs From The Book
DYEAR=1999
DGENRE=Gospel
TTITLE0=Michael Card - The Book
TTITLE1=Winans Phase 2 - El Shaddai
TTITLE2=Amy Grant - Nothing is Beyond You
TTITLE3=Jaci Velasquez - God So Loved
TTITLE4=Crystal LEwis and Ron Kenoly - Beauty for Ashes
TTITLE5=Anointed, Brian Duncan, Crystal Lewis - One Voice
TTITLE6=Ginny Ownes - Thy Word
TTITLE7=Point of Grace - Jesus Is
TTITLE8=Sandi Patty and BeBe Winans - He Watches Over You
TTITLE9=Anointed - The Word
TTITLE10=Sixpence None The Richer - Trust
TTITLE11=Steven Curtis Chapman - Sometimes He Comes in the Clouds
TTITLE12=4HIM - You Are Holy
TTITLE13=The Ragamuffins - My Deliverer
EXTD=
EXTT0=
EXTT1=
EXTT2=
EXTT3=
EXTT4=
EXTT5=
EXTT6=
EXTT7=
EXTT8=
EXTT9=
EXTT10=
EXTT11=
EXTT12=
EXTT13=
PLAYORDER=
